<?xml version="1.0" encoding="UTF-8" standalone="no"?>
<svg width="101px" height="40px" viewBox="0 0 101 40" version="1.1" xmlns="http://www.w3.org/2000/svg" xmlns:xlink="http://www.w3.org/1999/xlink">
    <!-- Generator: Sketch 49.1 (51147) - http://www.bohemiancoding.com/sketch -->
    <title>Kuva Logo</title>
    <desc>Created with Sketch.</desc>
    <defs>
        <linearGradient x1="70.5714566%" y1="0%" x2="7.60732981%" y2="100%" id="linearGradient-1">
            <stop stop-color="#97DDFD" offset="0%"></stop>
            <stop stop-color="#48C0FB" offset="42.3432984%"></stop>
            <stop stop-color="#2785F7" offset="76.9180276%"></stop>
            <stop stop-color="#1561BE" offset="100%"></stop>
        </linearGradient>
        <linearGradient x1="77.4624694%" y1="82.9892792%" x2="-17.6153867%" y2="-35.5875257%" id="linearGradient-2">
            <stop stop-color="#006CF9" offset="0%"></stop>
            <stop stop-color="#140AAA" offset="100%"></stop>
        </linearGradient>
    </defs>
    <g id="Symbols" stroke="none" stroke-width="1" fill="none" fill-rule="evenodd">
        <g id="Header" transform="translate(-42.000000, -19.000000)">
            <g transform="translate(42.000000, 19.000000)" id="Kuva-Logo">
                <g>
                    <g id="Group-2-Copy-13">
                        <path d="M12.4724584,1.22675564 L1.05369403,16.9603826 C0.364724673,17.9384803 0,19.0730883 0,20.2405305 C0,21.5035572 0.425444652,22.7133192 1.22330517,23.745776 C5.41600972,29.6964354 7.51236199,32.6717651 7.51236199,32.6717651 C7.51236199,32.6717651 7.62809841,31.0083172 7.8439509,30.3711667 C8.05980338,29.7340162 9.0548524,28.2458937 9.39392876,27.8060798 C13.7907988,22.1029259 19.8140884,13.6077164 27.4637975,2.3204513 L27.4637865,2.32044382 C27.9243674,1.64084949 27.7468219,0.716554835 27.0672276,0.255973917 C26.8210985,0.0891650648 26.5306014,-5.4618505e-17 26.2332721,0 L14.8785689,4.4408921e-16 C13.9263554,1.46474342e-15 13.0317583,0.456110416 12.4724584,1.22675564 Z" id="Path" fill="url(#linearGradient-1)"></path>
                        <path d="M10.2127512,29.8335929 C9.57574816,30.7866963 9.23240475,31.8748653 9.23240475,32.9968916 C9.23240475,34.1203741 9.58882802,35.1128684 10.394792,36.2486947 C10.4957753,36.3597323 10.5870643,36.4787792 10.6609841,36.6123885 C10.746214,36.7634725 10.8459856,36.905091 10.9429296,37.0481657 L11.1816543,37.3783662 C11.6150748,37.9328263 12.1414001,38.4224841 12.7687087,38.8287727 C13.9231504,39.5769116 15.5022498,39.9842923 16.9160168,39.9937578 C20.0833836,39.9937578 23.2507504,39.9937578 26.4181172,39.9937578 L26.4181172,39.9937578 C27.2390894,39.9937578 27.9046188,39.3282284 27.9046188,38.5072562 C27.9046188,38.1889234 27.8024275,37.8789985 27.6130858,37.6230973 L15.9655538,21.8810904 L10.2127512,29.8335929 Z" id="Path" fill="url(#linearGradient-2)"></path>
                    </g>
                    <g id="Kubacash-Copy-6" transform="translate(38.019011, 9.904762)">
                        <path d="M58.6007579,14.1207167 C57.278719,14.1207167 56.0690848,14.0719659 54.8654102,14.1355757 C53.8324121,14.1901698 53.2778378,14.8371192 53.2859495,15.7921 C53.2940612,16.7843116 53.8247971,17.372159 54.8627615,17.445953 C55.5461295,17.4943698 56.2384369,17.4935351 56.9216393,17.4447843 C57.934441,17.3726599 58.5040799,16.8172017 58.591984,15.8320021 C58.6404886,15.2890655 58.6007579,14.7376142 58.6007579,14.1207167 M58.5704633,10.9502474 C58.7692823,8.50018748 58.2233163,7.84138433 55.9195981,7.80982989 C54.7945572,7.79430311 53.6647155,7.90966879 52.5418267,8.0153511 C51.4376444,8.11936386 51.077585,7.84489038 51.0080562,6.73063486 C50.9047564,5.08028788 51.294945,4.59962536 52.9537016,4.4009493 C55.0208566,4.15385637 57.0828798,4.14951555 59.0972261,4.76006881 C61.3557506,5.44474994 62.5143971,6.86887333 62.5975004,9.24330275 C62.6789484,11.5746579 62.6820937,13.913192 62.6042878,16.2447141 C62.5228398,18.6849237 61.3214829,20.0744874 58.9586653,20.6347873 C56.9994453,21.0990883 55.0231742,21.1109421 53.0601467,20.657994 C50.3953758,20.042933 49.191039,18.4470132 49.2769567,15.7099583 C49.3577424,13.1318441 50.7678511,11.5033682 53.419544,11.14692 C54.8316392,10.9570925 56.2756844,11.0063441 57.7053273,10.95175 C57.9761583,10.9413988 58.2476513,10.9502474 58.5704633,10.9502474" id="Fill-8" fill="#001E59"></path>
                        <path d="M31.1574579,10.6991308 C31.1574579,12.4491498 31.2895625,14.2116903 31.1268322,15.9461824 C30.8763633,18.6169564 29.4732075,20.0868254 26.8756476,20.6927039 C25.2139113,21.0803727 23.5328062,21.0890543 21.8705731,20.7130724 C18.9422553,20.0507632 17.3889506,18.1995697 17.2778701,15.0187492 C17.175067,12.0738357 17.2292,9.12257782 17.2538662,6.17449213 C17.2634678,5.03485951 17.6467035,4.69594151 18.7609839,4.63199787 C20.9991465,4.50344277 21.307225,4.79661518 21.3080527,7.06168929 C21.309046,9.53729324 21.2972923,12.0128972 21.3133501,14.4883342 C21.3249382,16.3007942 21.8672622,16.8656018 23.656468,17.0066785 C23.6841139,17.0090159 23.7114287,17.0118541 23.7390747,17.0136906 C26.5440619,17.2155388 27.2120342,16.5988083 27.2128619,13.8033192 C27.2138552,11.4113595 27.1989562,9.01889897 27.2227946,6.62693931 C27.2294164,5.95628237 27.0685071,5.0061433 27.898382,4.84403031 C28.8260938,4.66255058 29.8456828,4.78225708 30.7866381,4.96907937 C31.0238635,5.01616059 31.2302975,5.81537262 31.248673,6.27700231 C31.3071102,7.74904169 31.2703593,9.22458713 31.2703593,10.6987969 C31.2327807,10.6989639 31.1950366,10.6991308 31.1574579,10.6991308" id="Fill-10" fill="#001E59"></path>
                        <path d="M40.8308231,20.9516673 C40.5826718,20.9516673 40.3341894,20.9620185 40.0867002,20.9499978 C37.6465733,20.8322947 36.5024948,19.9746485 35.9254064,17.5694995 C35.0125936,13.765771 34.1875195,9.94067244 33.3483741,6.11924683 C33.1166117,5.06392632 33.4405824,4.69762776 34.5315211,4.63218152 C34.5590015,4.63051198 34.5866475,4.63067893 34.6141279,4.62951025 C36.8410334,4.53601563 37.1722881,4.77910164 37.6440901,6.96420445 C38.2940181,9.9750651 38.9197766,12.9911013 39.5639105,16.0031307 C39.7963351,17.0903395 40.0853759,17.3406046 40.9207138,17.3484515 C41.9237483,17.3579679 42.0344976,16.5954859 42.1861365,15.8922728 C42.8524534,12.8001052 43.4902966,9.70125943 44.1602555,6.60975967 C44.5517684,4.80397789 46.2860133,3.95100644 47.930533,4.81316039 C48.208979,4.95891183 48.4192206,5.61738107 48.3546582,5.98434745 C48.0474075,7.73202901 47.6388435,9.46167947 47.2575944,11.1958377 C46.8465472,13.066064 46.4335135,14.9354555 46.0075673,16.8020088 C45.2692385,20.0375904 44.1057913,20.9681958 40.8308231,20.9516673" id="Fill-14" fill="#001E59"></path>
                        <path d="M6.66689618,6.29811253 L10.6351102,1.42390052 C11.1003183,0.854517781 11.5290338,0.474436317 11.9209598,0.28483926 C12.3119958,0.0946506369 12.8783749,0 13.6195038,0 L14.9842727,0 C15.7248082,0 16.1428428,0.0946506369 16.23808,0.28483926 C16.3336138,0.474436317 16.1478865,0.854517781 15.682975,1.42390052 L10.762093,7.56376902 C9.8939813,8.64012423 9.42877311,9.28374856 9.36557837,9.49464201 C9.32255848,9.62094145 9.30179026,9.74753668 9.30179026,9.87413191 C9.30179026,10.0856169 9.37002871,10.2852706 9.50798904,10.4754592 C9.645356,10.6656479 10.0636873,11.2033818 10.762093,12.0895484 L16.3172959,19.1155835 C16.7828008,19.7065584 16.968528,20.0964007 16.8729942,20.2865893 C16.7780537,20.4767779 16.3597224,20.5714286 15.6191869,20.5714286 L14.2538246,20.5714286 C13.5129924,20.5714286 12.9472067,20.4767779 12.5558741,20.2865893 C12.1636513,20.0964007 11.7352326,19.7065584 11.2703211,19.1155835 L6.66689618,13.292203 C5.69345991,12.0688435 5.20659343,10.8868937 5.20659343,9.74753668 C5.20659343,8.65106821 5.69345991,7.50017562 6.66689618,6.29811253 M0,18.7360936 L0,1.83533501 C0,1.11835643 0.121642447,0.632680351 0.365224031,0.379489897 C0.608508925,0.126595227 1.10041911,0 1.84154798,0 L2.41297079,0 C3.15350627,0 3.64541646,0.126595227 3.88929473,0.379489897 C4.13228294,0.632680351 4.25422208,1.11835643 4.25422208,1.83533501 L4.25422208,18.7360936 C4.25422208,19.4536637 4.13228294,19.9387482 3.88929473,20.1919387 C3.64541646,20.4448333 3.15350627,20.5714286 2.41297079,20.5714286 L1.84154798,20.5714286 C1.10041911,20.5714286 0.608508925,20.4448333 0.365224031,20.1919387 C0.121642447,19.9387482 0,19.4536637 0,18.7360936" id="Fill-1" fill="#001E5A"></path>
                    </g>
                </g>
            </g>
        </g>
    </g>
</svg>